<?xml version="1.0" standalone="no"?>
<!DOCTYPE svg PUBLIC "-//W3C//DTD SVG 20010904//EN"
 "http://www.w3.org/TR/2001/REC-SVG-20010904/DTD/svg10.dtd">
<svg version="1.0" xmlns="http://www.w3.org/2000/svg"
 width="296.000000pt" height="296.000000pt" viewBox="0 0 296.000000 296.000000"
 preserveAspectRatio="xMidYMid meet">
<metadata>
Created by potrace 1.14, written by Peter Selinger 2001-2017
</metadata>
<g transform="translate(0.000000,296.000000) scale(0.100000,-0.100000)"
fill="#000000" stroke="none">
<path d="M634 2848 c-96 -101 -304 -340 -321 -372 -19 -34 -18 -1196 2 -1342
38 -286 147 -506 350 -710 190 -191 387 -292 671 -343 74 -13 278 -14 336 -2
24 6 68 15 98 21 425 89 786 442 901 880 35 133 39 220 39 859 l0 636 -28 30
c-15 17 -41 46 -57 66 -36 43 -220 251 -263 297 -19 20 -40 32 -56 32 -35 0
-34 -26 2 -65 15 -16 45 -52 67 -80 22 -27 66 -81 98 -119 85 -103 83 -107
-60 -99 -66 3 -123 10 -130 17 -12 12 -122 201 -163 280 -26 51 -63 77 -81 59
-7 -7 12 -57 61 -159 40 -82 85 -177 102 -212 l30 -63 -4 -642 c-4 -617 -5
-645 -26 -719 -18 -68 -76 -204 -91 -218 -4 -3 -20 -23 -36 -45 -60 -82 -138
-147 -236 -198 -60 -31 -84 -40 -185 -66 -86 -23 -306 -10 -366 20 -10 5 -22
9 -28 9 -21 0 -107 45 -166 86 -119 83 -212 206 -257 339 -47 138 -47 134 -47
809 l0 643 41 84 c97 197 149 311 149 325 0 20 -34 18 -52 -3 -15 -19 -41 -63
-91 -153 -17 -30 -37 -66 -46 -80 -9 -14 -26 -42 -36 -63 -23 -44 -26 -45
-163 -50 -80 -3 -105 -1 -109 9 -4 12 15 39 114 154 82 96 142 177 140 185 -2
6 -14 11 -28 13 -18 2 -37 -10 -75 -50z"/>
<path d="M1343 2884 c-7 -3 -9 -12 -6 -20 3 -8 1 -20 -5 -27 -5 -6 -15 -41
-22 -77 -6 -36 -16 -85 -21 -110 -17 -85 -27 -155 -22 -162 2 -5 3 -214 1
-465 -5 -808 -5 -812 19 -859 30 -56 94 -111 145 -124 24 -6 50 -13 60 -16 27
-8 111 18 155 48 24 16 55 50 70 76 l28 47 0 660 c1 610 -2 709 -25 820 -25
120 -30 143 -37 175 -5 20 -15 35 -23 35 -15 0 -16 -34 -7 -280 l2 -70 -141
-3 c-172 -3 -170 -4 -155 100 15 98 19 251 6 254 -5 1 -15 0 -22 -2z"/>
</g>
</svg>
